<?xml version="1.0" encoding="UTF-8" standalone="no"?>
<!-- Created with Inkscape (http://www.inkscape.org/) -->

<svg
   version="1.1"
   id="svg2"
   width="384"
   height="384"
   viewBox="0 0 384 384"
   sodipodi:docname="BHIS Logo_COLOR copy.eps"
   xmlns:inkscape="http://www.inkscape.org/namespaces/inkscape"
   xmlns:sodipodi="http://sodipodi.sourceforge.net/DTD/sodipodi-0.dtd"
   xmlns="http://www.w3.org/2000/svg"
   xmlns:svg="http://www.w3.org/2000/svg">
  <defs
     id="defs6" />
  <sodipodi:namedview
     id="namedview4"
     pagecolor="#ffffff"
     bordercolor="#000000"
     borderopacity="0.25"
     inkscape:showpageshadow="2"
     inkscape:pageopacity="0.0"
     inkscape:pagecheckerboard="0"
     inkscape:deskcolor="#d1d1d1" />
  <g
     id="g8"
     inkscape:groupmode="layer"
     inkscape:label="ink_ext_XXXXXX"
     transform="matrix(1.3333333,0,0,-1.3333333,0,384)">
    <g
       id="g10"
       transform="scale(0.1)">
      <path
         d="M 967.422,2295.04 C 937.559,2282.82 831.559,2233.31 714.949,2106.08 548.59,1924.56 416.199,1642.93 388.559,1582 c -2.961,-6.53 -2.348,-14.47 1.312,-17.68 3.649,-3.21 10.141,-1.11 14.481,4.68 0,0 192.648,298.03 312.539,423.83 5.019,5.25 13.058,5.54 18.57,0.71 L 2335.33,590.898 c 11.03,-9.66 28.14,-8.937 38.16,1.59 l 28.49,29.981 c 10.02,10.551 9.21,26.98 -1.82,36.652 L 808.078,2054.95 c -14.609,14.17 -35.297,42.98 -6.508,82.96 37.059,51.44 157.442,118.64 189.399,135.91 4.332,2.35 4.883,6.83 1.203,10.06 l -9.723,8.52 c -3.687,3.22 -10.449,4.51 -15.027,2.64 M 570.051,1845.41 555.98,1825.88 c -2.511,-3.49 -7.5,-4.34 -11.14,-1.92 l -1.352,0.91 c -3.636,2.42 -4.558,7.21 -2.039,10.69 l 14.071,19.53 c 2.531,3.49 7.511,4.35 11.14,1.91 l 1.36,-0.89 c 3.628,-2.43 4.558,-7.22 2.031,-10.7 m 53.168,73.88 -15.84,-21.01 c -2.82,-3.76 -8.301,-4.57 -12.207,-1.85 l -1.461,1 c -3.902,2.73 -4.789,7.99 -1.981,11.74 l 15.848,21.02 c 2.82,3.76 8.293,4.59 12.211,1.86 l 1.441,-1.03 c 3.918,-2.72 4.801,-7.98 1.989,-11.73 m 57.761,75.67 -18.679,-22.99 c -3.332,-4.1 -9.5,-4.82 -13.781,-1.59 l -1.59,1.19 c -4.282,3.21 -5.071,9.14 -1.731,13.24 l 18.672,22.98 c 3.32,4.11 9.488,4.83 13.777,1.6 l 1.582,-1.18 c 4.309,-3.23 5.071,-9.16 1.75,-13.25 m 55.598,59.59 c -5.418,-5.7 -14.64,-6.08 -20.609,-0.86 -5.969,5.24 -6.41,14.1 -0.989,19.81 5.418,5.7 14.661,6.09 20.622,0.86 5.968,-5.24 6.41,-14.1 0.976,-19.81"
         style="fill:#100f0d;fill-opacity:1;fill-rule:nonzero;stroke:none"
         id="path12" />
      <path
         d="m 780.852,2105.41 c 0,0 -0.161,0.65 -0.364,1.91 -0.148,1.25 -0.476,3.14 -0.41,5.52 -0.066,2.39 0.16,5.29 0.531,8.62 0.539,3.28 1.102,7.03 2.321,10.97 0.941,4.04 2.64,8.18 4.3,12.62 2.059,4.24 3.829,8.96 6.571,13.36 1.301,2.25 2.609,4.53 3.929,6.83 1.45,2.24 2.961,4.48 4.52,6.7 2.988,4.55 6.512,8.82 9.941,13.14 3.387,4.37 7.321,8.27 11,12.29 3.598,4.09 7.649,7.6 11.438,11.13 3.812,3.5 7.48,6.92 11.293,9.78 3.68,2.99 7.25,5.73 10.539,8.24 3.219,2.6 6.5,4.59 9.301,6.49 2.816,1.83 5.289,3.44 7.328,4.76 4.09,2.59 6.461,4 6.461,4 0,0 -1.91,-1.98 -5.34,-5.34 -1.731,-1.66 -3.832,-3.66 -6.242,-5.96 -2.391,-2.33 -5.219,-4.75 -8.071,-7.69 -2.878,-2.88 -6,-6 -9.378,-9.21 -3.442,-3.15 -6.649,-6.83 -10.219,-10.42 -3.551,-3.6 -7.141,-7.38 -10.61,-11.36 -3.492,-3.95 -7.23,-7.83 -10.441,-12.09 -3.398,-4.12 -6.879,-8.18 -9.828,-12.49 -1.543,-2.1 -3.094,-4.2 -4.613,-6.26 -1.399,-2.15 -2.77,-4.25 -4.129,-6.33 -2.828,-4.11 -4.981,-8.35 -7.352,-12.26 -1.918,-4.08 -4.117,-7.83 -5.508,-11.5 -1.621,-3.63 -2.769,-7.05 -3.851,-10.1 -0.86,-3.09 -1.719,-5.8 -2.117,-8.08 -0.961,-4.55 -1,-7.27 -1,-7.27"
         style="fill:#ffffff;fill-opacity:1;fill-rule:nonzero;stroke:none"
         id="path14" />
      <path
         d="m 806.898,2018.87 c 0,0 24.024,-20.44 66.043,-56.21 20.957,-17.93 46.399,-39.72 75.59,-64.71 29.188,-24.98 62.129,-53.17 97.859,-84.14 35.77,-30.92 74.53,-64.4 115.52,-99.83 40.98,-35.43 84.29,-72.71 128.72,-111.64 89.05,-77.7 184.04,-160.58 279.01,-243.45 94.57,-83.31 189.15,-166.61 277.82,-244.72 44.41,-38.97 87.01,-76.98 127.46,-112.97 40.46,-35.981 78.71,-70.001 114.01,-101.411 35.37,-31.348 67.59,-60.289 96.14,-85.949 28.57,-25.649 53.46,-48 73.98,-66.418 40.9,-36.961 64.27,-58.051 64.27,-58.051 0,0 -24.02,20.43 -66.03,56.188 -20.97,17.941 -46.42,39.722 -75.61,64.722 -29.19,24.957 -62.13,53.149 -97.86,84.129 -35.77,30.91 -74.52,64.399 -115.52,99.828 -40.99,35.412 -84.28,72.712 -128.71,111.652 -89.05,77.69 -184.04,160.58 -279.02,243.45 -94.56,83.31 -189.13,166.62 -277.8,244.72 -44.41,38.97 -86.99,77 -127.46,112.98 -40.47,35.98 -78.7,70.01 -114.02,101.42 -35.35,31.34 -67.579,60.29 -96.13,85.95 -28.57,25.64 -53.48,47.98 -73.98,66.41 -40.91,36.94 -64.282,58.05 -64.282,58.05"
         style="fill:#ffffff;fill-opacity:1;fill-rule:nonzero;stroke:none"
         id="path16" />
      <path
         d="m 2163.8,2121.32 146.07,123.81 121.54,-150.97 -146.07,-123.81 -121.54,150.97"
         style="fill:#100f0d;fill-opacity:1;fill-rule:nonzero;stroke:none"
         id="path18" />
      <path
         d="m 2297.88,2014.08 -83.06,103.16 96.21,81.54 83.05,-103.16 -96.2,-81.54"
         style="fill:#100f0d;fill-opacity:1;fill-rule:nonzero;stroke:none"
         id="path20" />
      <path
         d="m 2214.82,2117.24 3.23,-3.81 92.3,78.22 76.78,-95.37 -88.57,-75.07 -79.85,99.17 -3.89,-3.14 3.23,-3.81 -3.23,3.81 -3.9,-3.13 86.28,-107.16 103.83,88.01 -89.32,110.95 -103.84,-88.01 3.05,-3.79 3.9,3.13"
         style="fill:#4e4f51;fill-opacity:1;fill-rule:nonzero;stroke:none"
         id="path22" />
      <path
         d="m 2328.1,2222.49 82.16,69.63 83.06,-103.16 -82.16,-69.64 -83.06,103.17"
         style="fill:#4e4f51;fill-opacity:1;fill-rule:nonzero;stroke:none"
         id="path24" />
      <path
         d="m 2423.99,2141.58 -54.11,68.01 54.11,-68.01"
         style="fill:#4e4f51;fill-opacity:1;fill-rule:nonzero;stroke:none"
         id="path26" />
      <path
         d="m 2364.99,2205.7 23.35,-29.34 9.78,7.78 -23.35,29.34 z m 38.91,-48.91 15.2,-19.1 9.78,7.78 -15.2,19.1"
         style="fill:#ffffff;fill-opacity:1;fill-rule:nonzero;stroke:none"
         id="path28" />
      <path
         d="m 2163.8,2121.32 -29.11,-83.93 55.16,-68.51 95.49,1.48 -121.54,150.96"
         style="fill:#100f0d;fill-opacity:1;fill-rule:nonzero;stroke:none"
         id="path30" />
      <path
         d="m 2112.57,2018.65 22.12,18.74 55.16,-68.51 -22.12,-18.75 -55.16,68.52"
         style="fill:#100f0d;fill-opacity:1;fill-rule:nonzero;stroke:none"
         id="path32" />
      <path
         d="m 498.93,627.871 1634.85,1385.649 33.97,-42.2 L 532.898,585.672 498.93,627.871"
         style="fill:#100f0d;fill-opacity:1;fill-rule:nonzero;stroke:none"
         id="path34" />
      <path
         d="m 2121.49,1978.42 c 0,0 -24.11,-19.87 -66.3,-54.66 -21.05,-17.45 -46.6,-38.64 -75.91,-62.95 -29.31,-24.3 -62.39,-51.72 -98.29,-81.87 -35.93,-30.09 -74.86,-62.67 -116.05,-97.16 -41.17,-34.48 -84.67,-70.75 -129.32,-108.66 -89.49,-75.66 -184.94,-156.35 -280.39,-237.04 -95.07,-81.16 -190.14,-162.31 -279.27,-238.39 -44.64,-37.96 -87.48,-75.01 -128.171,-110.081 C 907.102,952.539 868.641,919.379 833.141,888.77 797.57,858.219 765.16,830 736.441,804.988 707.691,779.98 682.648,758.18 662.012,740.219 620.859,704.18 597.34,683.602 597.34,683.602 c 0,0 24.121,19.878 66.308,54.648 21.051,17.449 46.602,38.641 75.922,62.961 29.309,24.277 62.391,51.711 98.289,81.848 35.93,30.082 74.86,62.679 116.039,97.16 41.18,34.471 84.672,70.761 129.332,108.681 89.48,75.65 184.93,156.35 280.37,237.05 95.07,81.15 190.14,162.31 279.28,238.39 44.63,37.95 87.46,75.02 128.15,110.09 40.7,35.06 79.15,68.23 114.66,98.84 35.56,30.54 67.98,58.77 96.7,83.79 28.74,24.99 53.79,46.78 74.41,64.74 41.18,36.03 64.69,56.62 64.69,56.62"
         style="fill:#ffffff;fill-opacity:1;fill-rule:nonzero;stroke:none"
         id="path36" />
      <path
         d="M 1373.38,2070.36 880.199,1788.54 c -41.328,-23.61 -74.84,-81.36 -74.84,-128.96 V 1075.9 c 0,-47.6 33.512,-105.349 74.84,-128.978 L 1373.38,665.121 c 41.34,-23.621 108.34,-23.621 149.67,-0.012 l 493.18,281.813 c 41.33,23.629 74.85,81.378 74.85,128.978 v 583.68 c 0,47.6 -33.52,105.35 -74.85,128.96 l -493.18,281.82 c -41.33,23.62 -108.34,23.62 -149.67,0"
         style="fill:#9cc2bc;fill-opacity:1;fill-rule:nonzero;stroke:none"
         id="path38" />
      <path
         d="m 2023.24,1520.87 -69.63,67.93 -19.68,59.22 -80.54,107.25 -83.77,-77.08 -41.32,-21.54 -11.22,6.75 -49.39,41.72 -26.36,31.84 -182.03,201.77 -100.46,-139.32 -31.42,-26.22 -113.77,-138.63 -58.65,-1.28 -109.79,88.11 -76.241,-132.59 -163.61,-280.36 24.231,-332.19 618.63,-334.961 616.3,334.883 24.5,342.918 -65.78,201.78"
         style="fill:#100f0d;fill-opacity:1;fill-rule:nonzero;stroke:none"
         id="path40" />
      <path
         d="m 1853.89,1476.23 108.17,-88.01 -265.52,264.38 78.12,-108.29 24.93,-68.01 -9.85,52.42 121.63,-115.25 -57.48,62.76"
         style="fill:#ffffff;fill-opacity:1;fill-rule:nonzero;stroke:none"
         id="path42" />
      <path
         d="m 1810.29,1684.72 -39.63,-45.89 30.5,18.85 -25.77,-34.82 148.4,-154.33 -30.17,68.98 26.66,-43.13 -34.9,73.37 25.99,-41.58 -59.93,130.49 -3.3,72.68 -94.47,-83.15 56.62,38.53"
         style="fill:#ffffff;fill-opacity:1;fill-rule:nonzero;stroke:none"
         id="path44" />
      <path
         d="m 1103.74,1634.28 -52.9,66.14 -104.75,-189.87 90.77,145.2 -82.559,-164.96 57.549,86.71 -55.799,-117.7 15.109,-53.69 59.45,76.98 -40.782,-75.63 80.712,113.9 -34.38,-71.42 99.15,112.75 10.3,54.21 -41.87,17.38"
         style="fill:#ffffff;fill-opacity:1;fill-rule:nonzero;stroke:none"
         id="path46" />
      <path
         d="m 1544.12,1710.38 -34.32,-40.47 39.54,68.63 -53.34,-69.18 53.93,84.35 -55.29,68.23 63.02,-51.05 -73.53,85.95 68.03,-58.19 -71.42,78.93 -44.51,-51.39 33.26,69.96 -94.25,-114.2 -23.83,-15.95 -185.94,-238.19 70.7,53.78 9.19,-26.12 0.2,-2.91 20.78,17.23 -19.37,-33.96 46.12,48.03 -41.69,-67.72 89.26,111.54 -95.07,-151.71 66.33,-119.65 27.99,54.66 -16.39,-75.58 0.04,-0.08 62.93,146.68 -47.66,-164.71 96.31,260.21 -74.2,-262.95 109.95,311.79 88.16,56.02 -33.83,-8.59 18.9,36.61"
         style="fill:#ffffff;fill-opacity:1;fill-rule:nonzero;stroke:none"
         id="path48" />
      <path
         d="m 1337.47,788.191 c 0,-7.261 -5.88,-13.152 -13.14,-13.152 -7.26,0 -13.14,5.891 -13.14,13.152 0,7.258 5.88,13.129 13.14,13.129 7.26,0 13.14,-5.871 13.14,-13.129"
         style="fill:#ffffff;fill-opacity:1;fill-rule:nonzero;stroke:none"
         id="path50" />
      <path
         d="m 1595.13,788.191 c 0,-7.261 -5.88,-13.152 -13.14,-13.152 -7.26,0 -13.14,5.891 -13.14,13.152 0,7.258 5.88,13.129 13.14,13.129 7.26,0 13.14,-5.871 13.14,-13.129"
         style="fill:#ffffff;fill-opacity:1;fill-rule:nonzero;stroke:none"
         id="path52" />
      <path
         d="m 1448.24,626.832 h -0.01 c -31.8,0 -62.01,7.258 -85.05,20.43 L 870,929.059 c -47.789,27.312 -85.219,91.821 -85.219,146.841 v 583.68 c 0,55.03 37.43,119.52 85.219,146.82 l 493.18,281.82 c 23.04,13.17 53.24,20.43 85.04,20.43 31.79,0 61.99,-7.26 85.04,-20.43 l 493.17,-281.82 c 47.79,-27.3 85.22,-91.79 85.22,-146.82 V 1075.9 c 0,-55.02 -37.43,-119.529 -85.21,-146.841 L 1533.26,647.25 c -23.05,-13.168 -53.25,-20.418 -85.02,-20.418 m -0.02,1440.668 c -24.39,0 -47.95,-5.47 -64.62,-15.01 L 890.41,1770.67 c -34.949,-19.97 -64.48,-70.84 -64.48,-111.09 V 1075.9 c 0,-40.25 29.531,-91.138 64.48,-111.111 L 1383.59,682.98 c 16.69,-9.531 40.25,-15 64.64,-15.011 24.38,0 47.93,5.472 64.62,15 l 493.17,281.82 c 34.95,19.981 64.48,70.861 64.48,111.111 v 583.68 c 0,40.25 -29.53,91.12 -64.47,111.09 l -493.18,281.82 c -16.69,9.54 -40.25,15.01 -64.63,15.01"
         style="fill:#100f0d;fill-opacity:1;fill-rule:nonzero;stroke:none"
         id="path54" />
      <path
         d="m 1038.06,1138.59 v -42.03 c 5.5,0.19 9.01,1.05 10.53,2.6 1.51,1.55 2.27,5.35 2.27,11.41 v 14.01 c 0,6.43 -0.68,10.33 -2.04,11.69 -1.36,1.36 -4.95,2.13 -10.76,2.32 z m 0,56.78 v -33.4 c 1.67,0.06 2.96,0.09 3.89,0.09 3.84,0 6.28,0.94 7.33,2.83 1.05,1.89 1.58,7.28 1.58,16.19 0,4.7 -0.43,7.99 -1.3,9.88 -0.87,1.89 -2,3.08 -3.39,3.57 -1.39,0.5 -4.09,0.78 -8.11,0.84 z m -39.06,25.7 h 38.96 c 12.31,0 21.64,-0.96 27.98,-2.88 6.34,-1.91 11.46,-5.79 15.35,-11.64 3.9,-5.85 5.85,-15.26 5.85,-28.25 0,-8.79 -1.38,-14.91 -4.13,-18.37 -2.75,-3.47 -8.18,-6.13 -16.28,-7.98 9.03,-2.04 15.15,-5.43 18.37,-10.16 3.21,-4.73 4.82,-11.99 4.82,-21.76 v -13.91 c 0,-10.15 -1.16,-17.66 -3.48,-22.55 -2.32,-4.89 -6.02,-8.23 -11.09,-10.02 -5.07,-1.79 -15.46,-2.69 -31.17,-2.69 H 999 v 150.21"
         style="fill:#ffffff;fill-opacity:1;fill-rule:nonzero;stroke:none"
         id="path56" />
      <path
         d="m 1139.78,1221.07 v -120.15 h 23.75 v -30.06 h -62.81 v 150.21 h 39.06"
         style="fill:#ffffff;fill-opacity:1;fill-rule:nonzero;stroke:none"
         id="path58" />
      <path
         d="m 1224.49,1124.49 c -1.98,17.01 -3.96,38 -5.94,62.99 -3.96,-28.7 -6.43,-49.7 -7.42,-62.99 z m 20.69,96.58 22.36,-150.21 h -39.99 l -1.95,27 h -14.01 l -2.32,-27 h -40.45 l 19.85,150.21 h 56.51"
         style="fill:#ffffff;fill-opacity:1;fill-rule:nonzero;stroke:none"
         id="path60" />
      <path
         d="m 1365.42,1155.57 h -39.06 v 26.16 c 0,7.61 -0.42,12.35 -1.25,14.24 -0.83,1.89 -2.67,2.83 -5.52,2.83 -3.22,0 -5.26,-1.14 -6.13,-3.43 -0.86,-2.29 -1.29,-7.23 -1.29,-14.84 v -69.78 c 0,-7.29 0.43,-12.05 1.29,-14.28 0.87,-2.23 2.82,-3.34 5.85,-3.34 2.91,0 4.81,1.11 5.71,3.34 0.89,2.23 1.34,7.45 1.34,15.68 v 18.83 h 39.06 v -5.84 c 0,-15.53 -1.1,-26.54 -3.29,-33.03 -2.2,-6.5 -7.06,-12.19 -14.57,-17.08 -7.51,-4.89 -16.78,-7.33 -27.79,-7.33 -11.44,0 -20.87,2.07 -28.29,6.22 -7.43,4.15 -12.35,9.88 -14.76,17.21 -2.41,7.33 -3.61,18.36 -3.61,33.08 v 43.88 c 0,10.83 0.37,18.95 1.11,24.36 0.74,5.41 2.95,10.62 6.63,15.63 3.68,5.01 8.78,8.96 15.31,11.83 6.53,2.87 14.03,4.31 22.5,4.31 11.51,0 21,-2.23 28.48,-6.68 7.49,-4.45 12.41,-10 14.76,-16.65 2.35,-6.65 3.52,-16.99 3.52,-31.03 v -14.29"
         style="fill:#ffffff;fill-opacity:1;fill-rule:nonzero;stroke:none"
         id="path62" />
      <path
         d="m 1469.28,1221.07 -22.36,-67.82 24.49,-82.39 h -40.36 l -15.77,64.39 v -64.39 h -39.06 v 150.21 h 39.06 v -58.36 l 17.35,58.36 h 36.65"
         style="fill:#ffffff;fill-opacity:1;fill-rule:nonzero;stroke:none"
         id="path64" />
      <path
         d="m 1611.12,1221.07 v -150.21 h -39.06 v 63.09 h -11.69 v -63.09 h -39.06 v 150.21 h 39.06 v -53.72 h 11.69 v 53.72 h 39.06"
         style="fill:#ffffff;fill-opacity:1;fill-rule:nonzero;stroke:none"
         id="path66" />
      <path
         d="m 1665.86,1221.07 v -150.21 h -39.06 v 150.21 h 39.06"
         style="fill:#ffffff;fill-opacity:1;fill-rule:nonzero;stroke:none"
         id="path68" />
      <path
         d="m 1717.39,1221.07 v -120.15 h 23.76 v -30.06 h -62.82 v 150.21 h 39.06"
         style="fill:#ffffff;fill-opacity:1;fill-rule:nonzero;stroke:none"
         id="path70" />
      <path
         d="m 1789.67,1221.07 v -120.15 h 23.75 v -30.06 h -62.81 v 150.21 h 39.06"
         style="fill:#ffffff;fill-opacity:1;fill-rule:nonzero;stroke:none"
         id="path72" />
      <path
         d="m 1904.35,1175.61 h -36.28 v 11.13 c 0,5.2 -0.46,8.51 -1.39,9.93 -0.93,1.42 -2.47,2.13 -4.64,2.13 -2.35,0 -4.13,-0.96 -5.34,-2.87 -1.21,-1.92 -1.81,-4.83 -1.81,-8.72 0,-5.01 0.68,-8.79 2.05,-11.32 1.29,-2.54 4.97,-5.6 11.04,-9.19 17.38,-10.33 28.33,-18.8 32.84,-25.42 4.51,-6.62 6.77,-17.29 6.77,-32.01 0,-10.7 -1.25,-18.59 -3.75,-23.66 -2.51,-5.07 -7.35,-9.33 -14.52,-12.76 -7.18,-3.43 -15.53,-5.15 -25.06,-5.15 -10.45,0 -19.37,1.98 -26.76,5.94 -7.39,3.96 -12.23,9 -14.52,15.13 -2.29,6.12 -3.44,14.81 -3.44,26.07 v 9.83 h 36.28 v -18.28 c 0,-5.63 0.51,-9.24 1.53,-10.85 1.02,-1.61 2.83,-2.41 5.43,-2.41 2.6,0 4.53,1.02 5.8,3.06 1.27,2.04 1.9,5.07 1.9,9.09 0,8.85 -1.21,14.63 -3.62,17.35 -2.47,2.72 -8.57,7.27 -18.28,13.64 -9.71,6.43 -16.14,11.1 -19.29,14.01 -3.16,2.91 -5.77,6.93 -7.84,12.06 -2.07,5.13 -3.11,11.69 -3.11,19.67 0,11.51 1.47,19.92 4.41,25.24 2.93,5.32 7.68,9.48 14.24,12.47 6.55,3 14.47,4.5 23.75,4.5 10.15,0 18.79,-1.64 25.93,-4.91 7.15,-3.28 11.88,-7.41 14.2,-12.39 2.32,-4.98 3.48,-13.44 3.48,-25.37 v -5.94"
         style="fill:#ffffff;fill-opacity:1;fill-rule:nonzero;stroke:none"
         id="path74" />
      <path
         d="m 1013.21,915.648 h -4.65 l -1.35,1.352 v 68.84 c 0,0.91 0.45,1.359 1.35,1.359 h 4.65 c 0.9,0 1.35,-0.449 1.35,-1.359 V 917 c 0,-0.898 -0.45,-1.352 -1.35,-1.352"
         style="fill:#ffffff;fill-opacity:1;fill-rule:nonzero;stroke:none"
         id="path76" />
      <path
         d="m 1072.19,917 c 0,-0.898 -0.45,-1.352 -1.36,-1.352 h -3.86 c -0.91,0 -1.36,0.454 -1.36,1.352 v 30.461 c 0,5.93 -1.06,10.129 -3.19,12.609 -2.13,2.489 -5.12,3.731 -8.99,3.731 -5.22,0 -9.2,-1.449 -11.94,-4.352 -2.74,-2.898 -4.11,-6.961 -4.11,-12.187 V 917 c 0,-0.898 -0.45,-1.352 -1.36,-1.352 h -3.86 c -0.91,0 -1.36,0.454 -1.36,1.352 v 38.68 c 0,2.769 -0.01,4.922 -0.04,6.468 -0.03,1.551 -0.12,3.032 -0.25,4.454 l 0.34,1.019 1.02,0.34 h 3.48 c 0.9,0 1.35,-0.449 1.35,-1.359 v -5.321 c 1.81,2.77 3.98,4.809 6.53,6.098 2.55,1.293 6.04,1.93 10.49,1.93 6.13,0 10.74,-1.77 13.83,-5.321 3.09,-3.547 4.64,-8.539 4.64,-14.988 v -32"
         style="fill:#ffffff;fill-opacity:1;fill-rule:nonzero;stroke:none"
         id="path78" />
      <path
         d="m 1112.8,993.391 c 0.83,-0.262 1.22,-0.942 1.16,-2.039 l -0.2,-2.801 -0.48,-0.719 -0.87,0.039 -1.93,0.539 -2.03,0.141 c -3.81,0 -6.26,-1.903 -7.35,-5.699 -0.45,-1.551 -0.68,-4.961 -0.68,-10.25 v -4.641 h 10.64 c 0.9,0 1.35,-0.449 1.35,-1.359 v -2.903 c 0,-0.898 -0.45,-1.347 -1.35,-1.347 h -10.64 V 917 c 0,-0.898 -0.45,-1.352 -1.35,-1.352 h -3.77 c -0.91,0 -1.36,0.454 -1.36,1.352 v 45.352 h -9.38 c -0.9,0 -1.35,0.449 -1.35,1.347 v 2.903 c 0,0.91 0.45,1.359 1.35,1.359 h 9.38 v 3.961 c 0,7.027 0.65,12.09 1.94,15.18 1.99,4.636 5.99,6.957 11.99,6.957 1.87,0 3.51,-0.219 4.93,-0.668"
         style="fill:#ffffff;fill-opacity:1;fill-rule:nonzero;stroke:none"
         id="path80" />
      <path
         d="m 1169.94,941.75 c 0,-3.801 -0.55,-7.328 -1.64,-10.59 -1.1,-3.25 -2.55,-6.101 -4.35,-8.551 -2.26,-2.711 -4.95,-4.8 -8.08,-6.289 -3.13,-1.48 -6.69,-2.218 -10.68,-2.218 -4,0 -7.58,0.738 -10.73,2.218 -3.16,1.489 -5.87,3.578 -8.13,6.289 -1.8,2.45 -3.23,5.301 -4.3,8.551 -1.06,3.262 -1.59,6.789 -1.59,10.59 0,7.801 1.96,14.18 5.89,19.148 4.51,5.614 10.8,8.411 18.86,8.411 4.06,0 7.64,-0.688 10.73,-2.079 3.09,-1.39 5.77,-3.5 8.03,-6.332 3.99,-5.089 5.99,-11.476 5.99,-19.148 z m -7.15,0 c 0,3.031 -0.4,5.871 -1.21,8.512 -0.81,2.648 -1.92,5 -3.34,7.058 -3.35,4.129 -7.7,6.192 -13.05,6.192 -2.71,0 -5.14,-0.532 -7.3,-1.602 -2.16,-1.058 -4.08,-2.59 -5.75,-4.59 -1.49,-2.058 -2.63,-4.41 -3.44,-7.058 -0.81,-2.641 -1.21,-5.481 -1.21,-8.512 0,-3.09 0.4,-5.961 1.21,-8.602 0.81,-2.648 1.95,-4.968 3.44,-6.968 3.41,-4.192 7.76,-6.282 13.05,-6.282 2.71,0 5.14,0.551 7.3,1.641 2.16,1.102 4.08,2.652 5.75,4.641 1.42,2 2.53,4.32 3.34,6.968 0.81,2.641 1.21,5.512 1.21,8.602"
         style="fill:#ffffff;fill-opacity:1;fill-rule:nonzero;stroke:none"
         id="path82" />
      <path
         d="m 1207.65,962.059 c -1.16,0.39 -2.71,0.582 -4.64,0.582 -4.77,0 -8.31,-2.352 -10.64,-7.063 -1.8,-3.668 -2.7,-8.379 -2.7,-14.117 V 917 c 0,-0.898 -0.45,-1.352 -1.36,-1.352 h -3.77 l -1.35,1.352 v 39.262 c 0,2.32 -0.02,4.199 -0.05,5.648 -0.03,1.449 -0.08,3.02 -0.14,4.692 0,0.91 0.45,1.359 1.35,1.359 h 3.58 c 0.9,0 1.35,-0.449 1.35,-1.359 v -9.473 c 3.16,8.121 7.8,12.18 13.92,12.18 1.49,0 2.97,-0.188 4.45,-0.579 l 1.02,-0.628 0.43,-1.211 v -4.059 l -0.48,-0.773 h -0.97"
         style="fill:#ffffff;fill-opacity:1;fill-rule:nonzero;stroke:none"
         id="path84" />
      <path
         d="m 1218.29,955.68 c 0,2.711 -0.03,4.851 -0.1,6.429 -0.07,1.571 -0.16,3.071 -0.29,4.493 0,0.91 0.45,1.359 1.35,1.359 h 3.58 c 0.91,0 1.36,-0.449 1.36,-1.359 v -5.223 c 1.48,2.391 3.48,4.269 5.99,5.66 2.51,1.391 5.61,2.082 9.28,2.082 3.87,0 7.25,-0.949 10.16,-2.859 2.9,-1.903 4.67,-4.692 5.31,-8.364 1.35,3.672 3.53,6.461 6.53,8.364 3,1.91 6.47,2.859 10.4,2.859 2.51,0 4.78,-0.449 6.81,-1.359 2.03,-0.903 3.77,-2.141 5.22,-3.723 1.45,-1.578 2.57,-3.43 3.34,-5.559 0.77,-2.128 1.16,-4.378 1.16,-6.769 V 917 l -1.35,-1.352 h -3.68 l -1.35,1.25 v 33.461 c 0,8.832 -3.71,13.243 -11.12,13.243 -2.26,0 -4.28,-0.5 -6.05,-1.493 -1.77,-1 -3.28,-2.371 -4.54,-4.109 -1.26,-1.738 -2.19,-3.77 -2.8,-6.102 -0.61,-2.32 -0.89,-4.769 -0.83,-7.339 V 917 c 0,-0.898 -0.45,-1.352 -1.35,-1.352 h -3.87 L 1250.1,917 v 33.359 c 0,8.832 -3.74,13.243 -11.22,13.243 -4.38,0 -7.83,-1.422 -10.34,-4.25 -2.51,-2.832 -3.77,-6.571 -3.77,-11.223 V 917 c 0,-0.898 -0.45,-1.352 -1.36,-1.352 h -3.77 l -1.35,1.352 v 38.68"
         style="fill:#ffffff;fill-opacity:1;fill-rule:nonzero;stroke:none"
         id="path86" />
      <path
         d="m 1308.21,959.832 -0.92,-0.141 -0.43,0.629 v 3.668 l 1.35,2.032 c 2.26,1.23 4.66,2.082 7.2,2.562 2.55,0.488 5.34,0.727 8.37,0.727 6.45,0 11.15,-1.528 14.12,-4.59 2.96,-3.071 4.44,-7.688 4.44,-13.879 v -24.27 c 0,-1.929 0.03,-3.66 0.1,-5.172 0.07,-1.507 0.16,-2.976 0.29,-4.398 l -1.35,-1.352 h -3.48 c -0.91,0 -1.36,0.454 -1.36,1.352 v 7.441 c -1.35,-3.293 -3.63,-5.832 -6.82,-7.632 -3.19,-1.809 -6.65,-2.707 -10.39,-2.707 -6.51,0 -11.28,1.898 -14.31,5.699 -1.03,1.289 -1.81,2.789 -2.32,4.5 -0.51,1.711 -0.77,3.398 -0.77,5.078 0,3.93 0.92,7.312 2.75,10.152 1.84,2.828 4.66,4.957 8.46,6.379 4.64,1.668 11.76,2.512 21.37,2.512 h 1.26 v 2.898 c 0,4.071 -0.92,7.16 -2.76,9.289 -1.83,2.129 -4.91,3.192 -9.23,3.192 -2.9,0 -5.64,-0.313 -8.22,-0.922 -2.58,-0.609 -5.03,-1.629 -7.35,-3.047 z m 27.56,-16.922 h -1.84 c -3.61,0.129 -6.81,-0.012 -9.62,-0.43 -2.81,-0.421 -5.14,-0.98 -7.01,-1.691 -2.71,-0.969 -4.74,-2.41 -6.09,-4.309 -1.35,-1.902 -2.03,-4.171 -2.03,-6.808 0,-1.613 0.26,-3.113 0.77,-4.5 0.51,-1.391 1.32,-2.473 2.42,-3.242 1.93,-1.551 4.51,-2.321 7.73,-2.321 2.26,0 4.34,0.45 6.24,1.352 1.9,0.91 3.56,2.199 4.98,3.871 1.42,1.668 2.52,3.75 3.29,6.238 0.77,2.481 1.16,5.328 1.16,8.551 v 3.289"
         style="fill:#ffffff;fill-opacity:1;fill-rule:nonzero;stroke:none"
         id="path88" />
      <path
         d="m 1383.05,915.551 c -2.71,-0.973 -5.38,-1.449 -8.03,-1.449 -5.22,0 -8.67,1.707 -10.34,5.117 -1.1,2.32 -1.65,6.41 -1.65,12.281 v 30.852 h -9.08 c -0.91,0 -1.36,0.449 -1.36,1.347 v 2.903 c 0,0.91 0.45,1.359 1.36,1.359 h 9.08 v 13.051 c 0,0.968 0.42,1.449 1.26,1.449 h 4.06 c 0.84,0 1.26,-0.481 1.26,-1.449 v -13.051 h 10.73 c 0.91,0 1.36,-0.449 1.36,-1.359 v -2.903 c 0,-0.898 -0.45,-1.347 -1.36,-1.347 h -10.73 v -34.133 c 0,-5.739 2.32,-8.61 6.96,-8.61 1.81,0 3.84,0.391 6.09,1.161 h 0.92 l 0.44,-0.77 0.19,-2.52 c 0.13,-0.898 -0.26,-1.539 -1.16,-1.929"
         style="fill:#ffffff;fill-opacity:1;fill-rule:nonzero;stroke:none"
         id="path90" />
      <path
         d="m 1392.43,986.23 c 0,1.29 0.45,2.399 1.35,3.34 0.91,0.93 2,1.399 3.29,1.399 1.29,0 2.4,-0.469 3.34,-1.399 0.93,-0.941 1.4,-2.05 1.4,-3.34 0,-1.289 -0.47,-2.378 -1.4,-3.289 -0.94,-0.902 -2.05,-1.351 -3.34,-1.351 -1.29,0 -2.38,0.449 -3.29,1.351 -0.9,0.911 -1.35,2 -1.35,3.289 z m 6.86,-70.582 h -4.25 l -1.35,1.352 v 49.602 c 0,0.91 0.45,1.359 1.35,1.359 h 4.25 c 0.91,0 1.36,-0.449 1.36,-1.359 V 917 c 0,-0.898 -0.45,-1.352 -1.36,-1.352"
         style="fill:#ffffff;fill-opacity:1;fill-rule:nonzero;stroke:none"
         id="path92" />
      <path
         d="m 1462.63,941.75 c 0,-3.801 -0.55,-7.328 -1.65,-10.59 -1.09,-3.25 -2.54,-6.101 -4.35,-8.551 -2.25,-2.711 -4.94,-4.8 -8.07,-6.289 -3.13,-1.48 -6.69,-2.218 -10.69,-2.218 -3.99,0 -7.57,0.738 -10.73,2.218 -3.16,1.489 -5.87,3.578 -8.12,6.289 -1.81,2.45 -3.24,5.301 -4.3,8.551 -1.07,3.262 -1.6,6.789 -1.6,10.59 0,7.801 1.97,14.18 5.9,19.148 4.51,5.614 10.8,8.411 18.85,8.411 4.07,0 7.65,-0.688 10.74,-2.079 3.09,-1.39 5.77,-3.5 8.02,-6.332 4,-5.089 6,-11.476 6,-19.148 z m -7.16,0 c 0,3.031 -0.4,5.871 -1.21,8.512 -0.81,2.648 -1.92,5 -3.33,7.058 -3.35,4.129 -7.71,6.192 -13.06,6.192 -2.71,0 -5.14,-0.532 -7.3,-1.602 -2.16,-1.058 -4.08,-2.59 -5.75,-4.59 -1.48,-2.058 -2.62,-4.41 -3.43,-7.058 -0.81,-2.641 -1.21,-5.481 -1.21,-8.512 0,-3.09 0.4,-5.961 1.21,-8.602 0.81,-2.648 1.95,-4.968 3.43,-6.968 3.42,-4.192 7.77,-6.282 13.05,-6.282 2.71,0 5.15,0.551 7.3,1.641 2.16,1.102 4.08,2.652 5.76,4.641 1.41,2 2.52,4.32 3.33,6.968 0.81,2.641 1.21,5.512 1.21,8.602"
         style="fill:#ffffff;fill-opacity:1;fill-rule:nonzero;stroke:none"
         id="path94" />
      <path
         d="m 1517.16,917 c 0,-0.898 -0.45,-1.352 -1.35,-1.352 h -3.87 l -1.35,1.352 v 30.461 c 0,5.93 -1.06,10.129 -3.19,12.609 -2.13,2.489 -5.13,3.731 -9,3.731 -5.22,0 -9.2,-1.449 -11.94,-4.352 -2.74,-2.898 -4.11,-6.961 -4.11,-12.187 V 917 l -1.35,-1.352 h -3.87 l -1.35,1.352 v 38.68 c 0,2.769 -0.02,4.922 -0.05,6.468 -0.03,1.551 -0.11,3.032 -0.24,4.454 l 0.34,1.019 1.01,0.34 h 3.48 c 0.91,0 1.36,-0.449 1.36,-1.359 v -5.321 c 1.8,2.77 3.97,4.809 6.52,6.098 2.55,1.293 6.04,1.93 10.49,1.93 6.13,0 10.74,-1.77 13.83,-5.321 3.09,-3.547 4.64,-8.539 4.64,-14.988 v -32"
         style="fill:#ffffff;fill-opacity:1;fill-rule:nonzero;stroke:none"
         id="path96" />
      <path
         d="m 1560.77,916.609 c -1.03,0.332 -1.45,0.911 -1.26,1.743 l 0.39,4.449 0.63,1.058 1.01,-0.089 c 2.26,-1.231 4.53,-2.11 6.82,-2.661 2.29,-0.55 4.91,-0.82 7.88,-0.82 4.71,0 8.56,1.293 11.55,3.859 3,2.582 4.5,6.223 4.5,10.93 0,1.871 -0.73,3.742 -2.18,5.613 -1.45,1.868 -3.46,3.637 -6.04,5.321 -2.25,1.41 -4.8,2.886 -7.64,4.437 -2.83,1.551 -5.54,3.242 -8.12,5.082 -2.58,1.84 -4.74,3.899 -6.48,6.188 -1.74,2.293 -2.61,4.953 -2.61,7.98 0,3.09 0.65,5.821 1.94,8.172 1.29,2.348 3.01,4.32 5.17,5.891 2.16,1.578 4.63,2.789 7.4,3.629 2.77,0.839 5.6,1.257 8.5,1.257 2.52,0 4.75,-0.148 6.68,-0.437 1.93,-0.289 4.03,-0.789 6.28,-1.5 0.97,-0.32 1.35,-0.902 1.16,-1.742 l -0.77,-3.77 c -0.19,-1.09 -0.74,-1.379 -1.65,-0.867 -1.8,0.84 -3.56,1.398 -5.27,1.688 -1.71,0.289 -3.88,0.441 -6.52,0.441 -2.13,0 -4.14,-0.262 -6.05,-0.77 -1.9,-0.519 -3.54,-1.3 -4.93,-2.332 -1.39,-1.031 -2.5,-2.308 -3.33,-3.859 -0.84,-1.551 -1.26,-3.379 -1.26,-5.512 0,-1.679 0.56,-3.258 1.69,-4.738 1.13,-1.488 2.51,-2.871 4.16,-4.16 1.65,-1.289 3.42,-2.461 5.32,-3.531 1.9,-1.059 3.62,-2.039 5.17,-2.95 2.13,-1.23 4.19,-2.48 6.19,-3.769 2,-1.289 3.77,-2.738 5.32,-4.352 1.55,-1.609 2.8,-3.386 3.77,-5.316 0.97,-1.934 1.45,-4.16 1.45,-6.672 0,-3.219 -0.66,-6.09 -1.98,-8.609 -1.33,-2.512 -3.08,-4.641 -5.27,-6.379 -2.19,-1.742 -4.72,-3.082 -7.59,-4.012 -2.87,-0.93 -5.86,-1.398 -8.95,-1.398 -2.83,0 -5.36,0.187 -7.59,0.578 -2.22,0.39 -4.72,1.031 -7.49,1.929"
         style="fill:#ffffff;fill-opacity:1;fill-rule:nonzero;stroke:none"
         id="path98" />
      <path
         d="m 1617.43,939.91 c -0.07,-3.219 0.3,-6.07 1.11,-8.551 0.81,-2.48 1.98,-4.558 3.53,-6.238 1.55,-1.672 3.4,-2.961 5.56,-3.871 2.16,-0.898 4.56,-1.352 7.2,-1.352 2.58,0 5,0.243 7.26,0.723 2.25,0.488 4.35,1.277 6.28,2.367 l 1.26,-0.668 v -4.351 l -1.07,-1.36 c -2.13,-0.828 -4.35,-1.461 -6.67,-1.879 -2.32,-0.421 -4.83,-0.628 -7.54,-0.628 -7.93,0 -13.92,2.296 -17.98,6.91 -4.07,4.609 -6.1,11.558 -6.1,20.84 0,8.187 2.03,14.789 6.1,19.82 4.25,5.09 9.63,7.637 16.14,7.637 3.61,0 6.74,-0.637 9.38,-1.93 2.65,-1.289 4.9,-3.231 6.77,-5.809 3.29,-4.57 4.93,-10.699 4.93,-18.371 l -0.05,-1.929 -0.33,-0.969 -1.02,-0.34 c -0.48,-0.031 -1.17,-0.051 -2.08,-0.051 z m 29.01,5.52 c 0,2.64 -0.26,4.992 -0.78,7.05 -0.51,2.071 -1.32,3.942 -2.41,5.61 -2.39,3.808 -5.84,5.711 -10.35,5.711 -4.64,0 -8.41,-1.93 -11.31,-5.801 -1.16,-1.738 -2.13,-3.738 -2.9,-6 -0.77,-2.25 -1.19,-4.441 -1.26,-6.57 h 29.01"
         style="fill:#ffffff;fill-opacity:1;fill-rule:nonzero;stroke:none"
         id="path100" />
      <path
         d="m 1700.39,915.262 c -1.93,-0.321 -3.8,-0.551 -5.61,-0.684 -1.8,-0.129 -3.96,-0.187 -6.48,-0.187 -3.99,0 -7.55,0.711 -10.68,2.129 -3.13,1.41 -5.77,3.351 -7.93,5.8 -2.16,2.45 -3.82,5.352 -4.98,8.7 -1.16,3.351 -1.74,6.96 -1.74,10.832 0,3.929 0.61,7.558 1.84,10.878 1.23,3.321 2.98,6.192 5.27,8.598 2.29,2.422 5.03,4.32 8.22,5.711 3.19,1.391 6.78,2.082 10.78,2.082 2.13,0 4.06,-0.082 5.8,-0.25 1.74,-0.16 3.61,-0.461 5.61,-0.91 0.9,-0.262 1.32,-0.871 1.25,-1.84 l -0.29,-3.101 -1.45,-0.872 c -1.67,0.524 -3.28,0.891 -4.83,1.122 -1.55,0.218 -3.25,0.332 -5.12,0.332 -3.29,0 -6.18,-0.532 -8.66,-1.59 -2.48,-1.071 -4.56,-2.571 -6.24,-4.5 -1.67,-1.934 -2.93,-4.242 -3.77,-6.91 -0.83,-2.672 -1.25,-5.59 -1.25,-8.75 0,-2.903 0.43,-5.672 1.3,-8.321 0.87,-2.64 2.13,-4.98 3.77,-7.011 1.65,-2.032 3.65,-3.641 6,-4.829 2.35,-1.191 5.04,-1.793 8.07,-1.793 2.26,0 4.13,0.102 5.61,0.293 1.48,0.188 3.16,0.547 5.03,1.059 0.97,0.262 1.48,0.039 1.54,-0.672 l 0.29,-3.578 c 0.07,-0.969 -0.38,-1.551 -1.35,-1.738"
         style="fill:#ffffff;fill-opacity:1;fill-rule:nonzero;stroke:none"
         id="path102" />
      <path
         d="m 1755.21,917 -1.35,-1.352 h -3.48 l -1.35,1.352 v 8.02 c -1.68,-3.872 -3.92,-6.649 -6.72,-8.36 -2.81,-1.711 -6.34,-2.558 -10.59,-2.558 -12.05,0 -18.08,6.738 -18.08,20.207 v 32.293 c 0,0.91 0.45,1.359 1.35,1.359 h 3.87 c 0.9,0 1.35,-0.449 1.35,-1.359 v -30.551 c 0,-10.961 4.19,-16.442 12.57,-16.442 2.45,0 4.66,0.532 6.63,1.59 1.97,1.071 3.63,2.52 4.98,4.36 1.35,1.832 2.38,3.98 3.09,6.429 0.71,2.453 1.03,5.024 0.97,7.731 v 26.883 c 0,0.91 0.45,1.359 1.35,1.359 h 3.87 c 0.9,0 1.35,-0.449 1.35,-1.359 V 927.73 c 0,-2.128 0.02,-4.031 0.05,-5.699 0.03,-1.679 0.08,-3.359 0.14,-5.031"
         style="fill:#ffffff;fill-opacity:1;fill-rule:nonzero;stroke:none"
         id="path104" />
      <path
         d="m 1796.79,962.059 c -1.16,0.39 -2.71,0.582 -4.64,0.582 -4.77,0 -8.31,-2.352 -10.63,-7.063 -1.81,-3.668 -2.71,-8.379 -2.71,-14.117 V 917 c 0,-0.898 -0.45,-1.352 -1.36,-1.352 h -3.77 l -1.35,1.352 v 39.262 c 0,2.32 -0.02,4.199 -0.05,5.648 -0.03,1.449 -0.08,3.02 -0.14,4.692 0,0.91 0.45,1.359 1.35,1.359 h 3.58 c 0.9,0 1.35,-0.449 1.35,-1.359 v -9.473 c 3.16,8.121 7.8,12.18 13.92,12.18 1.49,0 2.97,-0.188 4.45,-0.579 l 1.02,-0.628 0.43,-1.211 v -4.059 l -0.48,-0.773 h -0.97"
         style="fill:#ffffff;fill-opacity:1;fill-rule:nonzero;stroke:none"
         id="path106" />
      <path
         d="m 1805.98,986.23 c 0,1.29 0.45,2.399 1.35,3.34 0.91,0.93 2,1.399 3.29,1.399 1.29,0 2.4,-0.469 3.34,-1.399 0.93,-0.941 1.4,-2.05 1.4,-3.34 0,-1.289 -0.47,-2.378 -1.4,-3.289 -0.94,-0.902 -2.05,-1.351 -3.34,-1.351 -1.29,0 -2.38,0.449 -3.29,1.351 -0.9,0.911 -1.35,2 -1.35,3.289 z m 6.86,-70.582 h -4.25 l -1.35,1.352 v 49.602 c 0,0.91 0.45,1.359 1.35,1.359 h 4.25 c 0.91,0 1.36,-0.449 1.36,-1.359 V 917 c 0,-0.898 -0.45,-1.352 -1.36,-1.352"
         style="fill:#ffffff;fill-opacity:1;fill-rule:nonzero;stroke:none"
         id="path108" />
      <path
         d="m 1855.1,915.551 c -2.71,-0.973 -5.38,-1.449 -8.03,-1.449 -5.22,0 -8.67,1.707 -10.34,5.117 -1.1,2.32 -1.65,6.41 -1.65,12.281 v 30.852 h -9.09 c -0.9,0 -1.35,0.449 -1.35,1.347 v 2.903 c 0,0.91 0.45,1.359 1.35,1.359 h 9.09 v 13.051 c 0,0.968 0.42,1.449 1.26,1.449 h 4.06 c 0.84,0 1.26,-0.481 1.26,-1.449 v -13.051 h 10.73 c 0.9,0 1.35,-0.449 1.35,-1.359 v -2.903 c 0,-0.898 -0.45,-1.347 -1.35,-1.347 h -10.73 v -34.133 c 0,-5.739 2.32,-8.61 6.96,-8.61 1.81,0 3.84,0.391 6.09,1.161 h 0.92 l 0.43,-0.77 0.2,-2.52 -1.16,-1.929"
         style="fill:#ffffff;fill-opacity:1;fill-rule:nonzero;stroke:none"
         id="path110" />
      <path
         d="m 1861.38,901.328 -0.96,1.461 0.29,3.281 1.16,0.68 c 1.03,-0.391 2.22,-0.578 3.57,-0.578 1.35,0 2.6,0.207 3.73,0.629 1.13,0.418 1.98,0.98 2.56,1.687 0.71,0.903 1.5,2.383 2.37,4.453 0.87,2.059 1.72,4.411 2.56,7.059 -2.9,7.859 -5.77,15.629 -8.61,23.301 -2.83,7.668 -5.7,15.437 -8.6,23.301 v 0.918 l 0.77,0.441 h 4.55 c 0.9,0 1.54,-0.449 1.93,-1.359 l 13.05,-37.512 c 2.39,6.57 4.66,12.84 6.82,18.801 2.16,5.968 4.43,12.199 6.82,18.711 0.32,0.91 0.96,1.359 1.93,1.359 h 4.16 l 0.77,-0.441 v -0.918 l -20.11,-53.954 c -0.71,-1.867 -1.5,-3.546 -2.37,-5.027 -0.87,-1.48 -1.75,-2.672 -2.66,-3.582 -1.16,-1.09 -2.45,-1.91 -3.87,-2.457 -1.41,-0.551 -2.89,-0.832 -4.44,-0.832 -0.97,0 -1.84,0.031 -2.61,0.102 -0.77,0.07 -1.71,0.23 -2.81,0.476"
         style="fill:#ffffff;fill-opacity:1;fill-rule:nonzero;stroke:none"
         id="path112" />
      <path
         d="m 1402.55,758.961 v -8.27 h -38.03 c -0.1,3.348 0.91,7.09 3.03,11.239 2.13,4.152 6.01,9.039 11.65,14.679 6.6,6.571 10.92,11.653 12.97,15.243 2.04,3.589 3.06,6.929 3.06,10.019 0,3.57 -1.05,6.481 -3.14,8.731 -2.09,2.25 -4.66,3.378 -7.72,3.378 -3.29,0 -5.98,-1.21 -8.09,-3.64 -2.1,-2.43 -3.15,-5.899 -3.15,-10.43 l -7.27,0.91 c 0.51,6.731 2.41,11.789 5.71,15.192 3.3,3.386 7.65,5.09 13.04,5.09 5.87,0 10.31,-1.981 13.32,-5.93 3.01,-3.953 4.52,-8.453 4.52,-13.492 0,-4.469 -1.18,-8.75 -3.54,-12.84 -2.36,-4.102 -6.84,-9.559 -13.44,-16.391 -4.21,-4.301 -6.93,-7.23 -8.16,-8.801 -1.23,-1.558 -2.22,-3.117 -2.99,-4.687 h 28.23"
         style="fill:#ffffff;fill-opacity:1;fill-rule:nonzero;stroke:none"
         id="path114" />
      <path
         d="m 1417.23,785.27 c 0,-11.379 1.09,-19.008 3.28,-22.891 2.19,-3.867 4.98,-5.809 8.39,-5.809 3.23,0 5.92,1.961 8.09,5.891 2.17,3.918 3.25,11.519 3.25,22.809 0,11.421 -1.09,19.062 -3.27,22.921 -2.19,3.86 -5.02,5.789 -8.5,5.789 -3.19,0 -5.86,-1.96 -8.01,-5.89 -2.15,-3.918 -3.23,-11.531 -3.23,-22.82 z m -7.22,0 c 0,11.769 1.59,20.691 4.76,26.742 3.17,6.058 7.85,9.09 14.04,9.09 5.49,0 9.81,-2.454 12.96,-7.364 3.83,-5.929 5.74,-15.418 5.74,-28.468 0,-11.7 -1.58,-20.59 -4.73,-26.668 -3.16,-6.071 -7.85,-9.114 -14.07,-9.114 -5.48,0 -9.97,2.684 -13.46,8.043 -3.49,5.348 -5.24,14.598 -5.24,27.739"
         style="fill:#ffffff;fill-opacity:1;fill-rule:nonzero;stroke:none"
         id="path116" />
      <path
         d="m 1461.91,785.27 c 0,-11.379 1.09,-19.008 3.28,-22.891 2.19,-3.867 4.98,-5.809 8.39,-5.809 3.23,0 5.92,1.961 8.09,5.891 2.17,3.918 3.25,11.519 3.25,22.809 0,11.421 -1.09,19.062 -3.28,22.921 -2.18,3.86 -5.01,5.789 -8.49,5.789 -3.19,0 -5.86,-1.96 -8.01,-5.89 -2.15,-3.918 -3.23,-11.531 -3.23,-22.82 z m -7.22,0 c 0,11.769 1.59,20.691 4.76,26.742 3.17,6.058 7.85,9.09 14.04,9.09 5.49,0 9.81,-2.454 12.96,-7.364 3.83,-5.929 5.74,-15.418 5.74,-28.468 0,-11.7 -1.58,-20.59 -4.73,-26.668 -3.16,-6.071 -7.85,-9.114 -14.07,-9.114 -5.48,0 -9.97,2.684 -13.46,8.043 -3.49,5.348 -5.24,14.598 -5.24,27.739"
         style="fill:#ffffff;fill-opacity:1;fill-rule:nonzero;stroke:none"
         id="path118" />
      <path
         d="m 1506.54,770.922 c 0,-4.313 1.16,-7.774 3.47,-10.402 2.31,-2.629 5.08,-3.95 8.3,-3.95 3.25,0 6.01,1.282 8.28,3.828 2.26,2.551 3.39,5.973 3.39,10.243 0,4.3 -1.16,7.769 -3.49,10.398 -2.33,2.633 -5.12,3.949 -8.37,3.949 -3.22,0 -5.95,-1.308 -8.2,-3.929 -2.25,-2.61 -3.38,-5.989 -3.38,-10.137 z m 2.35,32.387 c 0,-3.45 0.91,-6.188 2.72,-8.227 1.82,-2.043 4.05,-3.062 6.7,-3.062 2.59,0 4.79,1 6.6,3.011 1.82,2.008 2.73,4.61 2.73,7.801 0,3.289 -0.93,5.969 -2.8,8.059 -1.87,2.089 -4.07,3.129 -6.62,3.129 -2.55,0 -4.75,-1.02 -6.58,-3.059 -1.83,-2.039 -2.75,-4.59 -2.75,-7.652 z m 1.34,-14.59 c -2.84,1.269 -4.99,3.101 -6.44,5.472 -1.45,2.379 -2.17,5.34 -2.17,8.879 0,5.328 1.57,9.66 4.71,13.012 3.14,3.348 7.09,5.02 11.84,5.02 4.78,0 8.76,-1.711 11.93,-5.122 3.17,-3.41 4.76,-7.808 4.76,-13.199 0,-3.383 -0.7,-6.242 -2.1,-8.59 -1.41,-2.339 -3.53,-4.16 -6.36,-5.472 3.47,-1.367 6.14,-3.59 8.01,-6.649 1.87,-3.058 2.8,-6.859 2.8,-11.39 0,-6.25 -1.81,-11.34 -5.43,-15.282 -3.62,-3.937 -8.11,-5.91 -13.47,-5.91 -5.42,0 -9.94,1.973 -13.56,5.91 -3.62,3.942 -5.43,9.114 -5.43,15.524 0,4.687 0.96,8.547 2.89,11.598 1.93,3.05 4.61,5.109 8.02,6.199"
         style="fill:#ffffff;fill-opacity:1;fill-rule:nonzero;stroke:none"
         id="path120" />
      <path
         d="m 1004,1015.53 908.59,3.88 -908.59,-3.88"
         style="fill:#100f0d;fill-opacity:1;fill-rule:nonzero;stroke:none"
         id="path122" />
      <path
         d="m 1004.04,1005.53 908.59,3.88 -0.08,20 -908.59,-3.88"
         style="fill:#ed1d24;fill-opacity:1;fill-rule:nonzero;stroke:none"
         id="path124" />
    </g>
  </g>
</svg>
